MutatorSansInstance_1000-900.ufo
<glyph name="comma" format="2">
  <advance width="304"/>
  <unicode hex="002C"/>
  <outline>
    <contour>
      <point x="247" y="0" type="line"/>
      <point x="247" y="300" type="line"/>
      <point x="57" y="300" type="line"/>
      <point x="57" y="0" type="line"/>
      <point x="136" y="-16" type="line"/>
      <point x="128" y="12" type="line"/>
      <point x="106" y="-143" type="line"/>
      <point x="178" y="-145" type="line"/>
    </contour>
  </outline>
</glyph>
<glyph name="period" format="2">
  <advance width="304"/>
  <unicode hex="002E"/>
  <outline>
    <contour>
      <point x="57" y="0" type="line"/>
      <point x="247" y="0" type="line"/>
      <point x="247" y="300" type="line"/>
      <point x="57" y="300" type="line"/>
    </contour>
  </outline>
</glyph>
<glyph name="A" format="2">
  <advance width="1235"/>
  <unicode hex="0041"/>
  <outline>
    <contour>
      <point x="19" y="0" type="line"/>
      <point x="340" y="0" type="line"/>
      <point x="609" y="800" type="line"/>
      <point x="336" y="800" type="line"/>
    </contour>
    <contour>
      <point x="200" y="120" type="line"/>
      <point x="904" y="120" type="line"/>
      <point x="904" y="339" type="line"/>
      <point x="200" y="339" type="line"/>
    </contour>
    <contour>
      <point x="759" y="0" type="line"/>
      <point x="1216" y="0" type="line"/>
      <point x="898" y="800" type="line"/>
      <point x="461" y="800" type="line"/>
    </contour>
    <contour>
      <point x="389" y="540" type="line"/>
      <point x="794" y="540" type="line"/>
      <point x="794" y="800" type="line"/>
      <point x="389" y="800" type="line"/>
    </contour>
  </outline>
</glyph>
<glyph name="B" format="2">
  <advance width="1241"/>
  <unicode hex="0042"/>
  <outline>
    <contour>
      <point x="57" y="0" type="line"/>
      <point x="466" y="0" type="line"/>
      <point x="466" y="801" type="line"/>
      <point x="57" y="801" type="line"/>
    </contour>
    <contour>
      <point x="433" y="338" type="line"/>
      <point x="738" y="338" type="line" smooth="yes"/>
      <point x="779" y="338"/>
      <point x="811" y="331"/>
      <point x="811" y="287" type="curve" smooth="yes"/>
      <point x="811" y="248"/>
      <point x="779" y="238"/>
      <point x="738" y="238" type="curve" smooth="yes"/>
      <point x="433" y="238" type="line"/>
      <point x="433" y="0" type="line"/>
      <point x="900" y="0" type="line" smooth="yes"/>
      <point x="1155" y="0"/>
      <point x="1222" y="94"/>
      <point x="1222" y="230" type="curve" smooth="yes"/>
      <point x="1222" y="356"/>
      <point x="1149" y="417"/>
      <point x="1055" y="434" type="curve"/>
      <point x="1027" y="377" type="line"/>
      <point x="1104" y="392"/>
      <point x="1194" y="444"/>
      <point x="1194" y="563" type="curve" smooth="yes"/>
      <point x="1194" y="711"/>
      <point x="1107" y="800"/>
      <point x="845" y="800" type="curve" smooth="yes"/>
      <point x="433" y="800" type="line"/>
      <point x="433" y="574" type="line"/>
      <point x="703" y="574" type="line" smooth="yes"/>
      <point x="752" y="574"/>
      <point x="784" y="565"/>
      <point x="784" y="528" type="curve" smooth="yes"/>
      <point x="784" y="476"/>
      <point x="752" y="479"/>
      <point x="703" y="479" type="curve" smooth="yes"/>
      <point x="433" y="479" type="line"/>
    </contour>
  </outline>
</glyph>
<glyph name="C" format="2">
  <advance width="1319"/>
  <unicode hex="0043"/>
  <outline>
    <contour>
      <point x="867" y="364" type="line"/>
      <point x="852" y="286"/>
      <point x="795" y="254"/>
      <point x="707" y="254" type="curve" smooth="yes"/>
      <point x="621" y="254" type="line" smooth="yes"/>
      <point x="520" y="254"/>
      <point x="459" y="298"/>
      <point x="459" y="403" type="curve" smooth="yes"/>
      <point x="459" y="504"/>
      <point x="520" y="546"/>
      <point x="621" y="546" type="curve" smooth="yes"/>
      <point x="707" y="546" type="line" smooth="yes"/>
      <point x="794" y="546"/>
      <point x="851" y="516"/>
      <point x="867" y="443" type="curve"/>
      <point x="1280" y="488" type="line"/>
      <point x="1240" y="706"/>
      <point x="1046" y="810"/>
      <point x="754" y="810" type="curve" smooth="yes"/>
      <point x="572" y="810" type="line" smooth="yes"/>
      <point x="244" y="810"/>
      <point x="38" y="679"/>
      <point x="38" y="403" type="curve" smooth="yes"/>
      <point x="38" y="124"/>
      <point x="244" y="-10"/>
      <point x="572" y="-10" type="curve" smooth="yes"/>
      <point x="754" y="-10" type="line" smooth="yes"/>
      <point x="1047" y="-10"/>
      <point x="1243" y="98"/>
      <point x="1281" y="322" type="curve"/>
    </contour>
  </outline>
</glyph>
<glyph name="D" format="2">
  <advance width="1175"/>
  <unicode hex="0044"/>
  <outline>
    <contour>
      <point x="57" y="0" type="line"/>
      <point x="464" y="0" type="line"/>
      <point x="464" y="800" type="line"/>
      <point x="57" y="800" type="line"/>
    </contour>
    <contour>
      <point x="413" y="546" type="line"/>
      <point x="555" y="546" type="line" smooth="yes"/>
      <point x="656" y="546"/>
      <point x="717" y="504"/>
      <point x="717" y="403" type="curve" smooth="yes"/>
      <point x="717" y="298"/>
      <point x="656" y="254"/>
      <point x="555" y="254" type="curve" smooth="yes"/>
      <point x="412" y="254" type="line"/>
      <point x="412" y="0" type="line"/>
      <point x="602" y="0" type="line" smooth="yes"/>
      <point x="930" y="0"/>
      <point x="1137" y="125"/>
      <point x="1137" y="403" type="curve" smooth="yes"/>
      <point x="1137" y="678"/>
      <point x="930" y="800"/>
      <point x="602" y="800" type="curve" smooth="yes"/>
      <point x="413" y="800" type="line"/>
    </contour>
  </outline>
</glyph>
<glyph name="E" format="2">
  <advance width="1149"/>
  <unicode hex="0045"/>
  <anchor x="555" y="841" name="top"/>
  <outline>
    <contour>
      <point x="58" y="0" type="line"/>
      <point x="465" y="0" type="line"/>
      <point x="465" y="800" type="line"/>
      <point x="58" y="800" type="line"/>
    </contour>
    <contour>
      <point x="148" y="530" type="line"/>
      <point x="1092" y="530" type="line"/>
      <point x="1092" y="800" type="line"/>
      <point x="148" y="800" type="line"/>
    </contour>
    <contour>
      <point x="148" y="0" type="line"/>
      <point x="1092" y="0" type="line"/>
      <point x="1092" y="270" type="line"/>
      <point x="148" y="270" type="line"/>
    </contour>
    <contour>
      <point x="148" y="315" type="line"/>
      <point x="896" y="315" type="line"/>
      <point x="896" y="485" type="line"/>
      <point x="148" y="485" type="line"/>
    </contour>
  </outline>
</glyph>
<glyph name="F" format="2">
  <advance width="1145"/>
  <unicode hex="0046"/>
  <outline>
    <contour>
      <point x="57" y="0" type="line"/>
      <point x="467" y="0" type="line"/>
      <point x="467" y="800" type="line"/>
      <point x="57" y="800" type="line"/>
    </contour>
    <contour>
      <point x="148" y="532" type="line"/>
      <point x="1088" y="532" type="line"/>
      <point x="1088" y="800" type="line"/>
      <point x="148" y="800" type="line"/>
    </contour>
    <contour>
      <point x="148" y="239" type="line"/>
      <point x="984" y="239" type="line"/>
      <point x="984" y="467" type="line"/>
      <point x="148" y="467" type="line"/>
    </contour>
  </outline>
</glyph>
<glyph name="G" format="2">
  <advance width="1352"/>
  <unicode hex="0047"/>
  <outline>
    <contour>
      <point x="618" y="314" type="line"/>
      <point x="875" y="314" type="line"/>
      <point x="875" y="216" type="line"/>
      <point x="1065" y="0" type="line"/>
      <point x="1295" y="0" type="line"/>
      <point x="1295" y="419" type="line"/>
      <point x="618" y="419" type="line"/>
    </contour>
    <contour>
      <point x="869" y="373" type="line"/>
      <point x="854" y="295"/>
      <point x="796" y="254"/>
      <point x="707" y="254" type="curve" smooth="yes"/>
      <point x="621" y="254" type="line" smooth="yes"/>
      <point x="520" y="254"/>
      <point x="459" y="298"/>
      <point x="459" y="403" type="curve" smooth="yes"/>
      <point x="459" y="504"/>
      <point x="521" y="546"/>
      <point x="623" y="546" type="curve" smooth="yes"/>
      <point x="708" y="546" type="line" smooth="yes"/>
      <point x="796" y="546"/>
      <point x="853" y="516"/>
      <point x="869" y="443" type="curve"/>
      <point x="1279" y="488" type="line"/>
      <point x="1239" y="706"/>
      <point x="1045" y="810"/>
      <point x="754" y="810" type="curve" smooth="yes"/>
      <point x="572" y="810" type="line" smooth="yes"/>
      <point x="244" y="810"/>
      <point x="38" y="679"/>
      <point x="38" y="403" type="curve" smooth="yes"/>
      <point x="38" y="124"/>
      <point x="244" y="-10"/>
      <point x="572" y="-10" type="curve" smooth="yes"/>
      <point x="592" y="-10" type="line" smooth="yes"/>
      <point x="885" y="-10"/>
      <point x="1080" y="107"/>
      <point x="1118" y="331" type="curve"/>
    </contour>
  </outline>
</glyph>
<glyph name="H" format="2">
  <advance width="1299"/>
  <unicode hex="0048"/>
  <outline>
    <contour>
      <point x="57" y="0" type="line"/>
      <point x="467" y="0" type="line"/>
      <point x="467" y="800" type="line"/>
      <point x="57" y="800" type="line"/>
    </contour>
    <contour>
      <point x="221" y="269" type="line"/>
      <point x="1078" y="269" type="line"/>
      <point x="1078" y="529" type="line"/>
      <point x="221" y="529" type="line"/>
    </contour>
    <contour>
      <point x="832" y="0" type="line"/>
      <point x="1242" y="0" type="line"/>
      <point x="1242" y="800" type="line"/>
      <point x="832" y="800" type="line"/>
    </contour>
  </outline>
</glyph>
<glyph name="I" format="2">
  <advance width="974"/>
  <unicode hex="0049"/>
  <outline>
    <contour>
      <point x="282" y="0" type="line"/>
      <point x="692" y="0" type="line"/>
      <point x="692" y="800" type="line"/>
      <point x="282" y="800" type="line"/>
    </contour>
    <contour>
      <point x="57" y="529" type="line"/>
      <point x="917" y="529" type="line"/>
      <point x="917" y="800" type="line"/>
      <point x="57" y="800" type="line"/>
    </contour>
    <contour>
      <point x="57" y="0" type="line"/>
      <point x="917" y="0" type="line"/>
      <point x="917" y="271" type="line"/>
      <point x="57" y="271" type="line"/>
    </contour>
  </outline>
</glyph>
<glyph name="J" format="2">
  <advance width="866"/>
  <unicode hex="004A"/>
  <outline>
    <contour>
      <point x="225" y="-10" type="curve" smooth="yes"/>
      <point x="584" y="-10"/>
      <point x="809" y="131"/>
      <point x="809" y="424" type="curve" smooth="yes"/>
      <point x="809" y="800" type="line"/>
      <point x="389" y="800" type="line"/>
      <point x="389" y="458" type="line" smooth="yes"/>
      <point x="389" y="335"/>
      <point x="326" y="283"/>
      <point x="222" y="283" type="curve" smooth="yes"/>
      <point x="200" y="283"/>
      <point x="152" y="284"/>
      <point x="102" y="292" type="curve"/>
      <point x="57" y="3" type="line"/>
      <point x="109" y="-6"/>
      <point x="166" y="-10"/>
    </contour>
  </outline>
</glyph>
<glyph name="K" format="2">
  <advance width="1266"/>
  <unicode hex="004B"/>
  <outline>
    <contour>
      <point x="57" y="0" type="line"/>
      <point x="467" y="0" type="line"/>
      <point x="467" y="800" type="line"/>
      <point x="57" y="800" type="line"/>
    </contour>
    <contour>
      <point x="324" y="312" type="line"/>
      <point x="475" y="312" type="line"/>
      <point x="725" y="0" type="line"/>
      <point x="1248" y="0" type="line"/>
      <point x="809" y="533" type="line"/>
      <point x="477" y="452" type="line"/>
      <point x="324" y="452" type="line"/>
    </contour>
    <contour>
      <point x="451" y="426" type="line"/>
      <point x="665" y="318" type="line"/>
      <point x="1233" y="800" type="line"/>
      <point x="766" y="800" type="line"/>
    </contour>
  </outline>
</glyph>
<glyph name="L" format="2">
  <advance width="1018"/>
  <unicode hex="004C"/>
  <outline>
    <contour>
      <point x="57" y="0" type="line"/>
      <point x="467" y="0" type="line"/>
      <point x="467" y="800" type="line"/>
      <point x="57" y="800" type="line"/>
    </contour>
    <contour>
      <point x="148" y="0" type="line"/>
      <point x="998" y="0" type="line"/>
      <point x="998" y="277" type="line"/>
      <point x="148" y="277" type="line"/>
    </contour>
  </outline>
</glyph>
<glyph name="M" format="2">
  <advance width="1251"/>
  <unicode hex="004D"/>
  <outline>
    <contour>
      <point x="57" y="0" type="line"/>
      <point x="370" y="0" type="line"/>
      <point x="370" y="800" type="line"/>
      <point x="57" y="800" type="line"/>
    </contour>
    <contour>
      <point x="1194" y="0" type="line"/>
      <point x="1194" y="800" type="line"/>
      <point x="881" y="800" type="line"/>
      <point x="881" y="0" type="line"/>
    </contour>
    <contour>
      <point x="999" y="406" type="line"/>
      <point x="881" y="800" type="line"/>
      <point x="602" y="547" type="line"/>
      <point x="650" y="547" type="line"/>
      <point x="370" y="800" type="line"/>
      <point x="252" y="406" type="line"/>
      <point x="561" y="133" type="line"/>
      <point x="690" y="133" type="line"/>
    </contour>
  </outline>
</glyph>
<glyph name="N" format="2">
  <advance width="1276"/>
  <unicode hex="004E"/>
  <outline>
    <contour>
      <point x="57" y="0" type="line"/>
      <point x="370" y="0" type="line"/>
      <point x="370" y="800" type="line"/>
      <point x="57" y="800" type="line"/>
    </contour>
    <contour>
      <point x="248" y="461" type="line"/>
      <point x="906" y="0" type="line"/>
      <point x="1028" y="339" type="line"/>
      <point x="370" y="800" type="line"/>
    </contour>
    <contour>
      <point x="906" y="0" type="line"/>
      <point x="1220" y="0" type="line"/>
      <point x="1220" y="800" type="line"/>
      <point x="906" y="800" type="line"/>
    </contour>
  </outline>
</glyph>
<glyph name="O" format="2">
  <advance width="1327"/>
  <unicode hex="004F"/>
  <outline>
    <contour>
      <point x="572" y="-10" type="curve" smooth="yes"/>
      <point x="754" y="-10" type="line" smooth="yes"/>
      <point x="1082" y="-10"/>
      <point x="1289" y="124"/>
      <point x="1289" y="403" type="curve" smooth="yes"/>
      <point x="1289" y="679"/>
      <point x="1082" y="810"/>
      <point x="754" y="810" type="curve" smooth="yes"/>
      <point x="572" y="810" type="line" smooth="yes"/>
      <point x="244" y="810"/>
      <point x="38" y="679"/>
      <point x="38" y="403" type="curve" smooth="yes"/>
      <point x="38" y="124"/>
      <point x="244" y="-10"/>
    </contour>
    <contour>
      <point x="621" y="254" type="line" smooth="yes"/>
      <point x="520" y="254"/>
      <point x="459" y="298"/>
      <point x="459" y="403" type="curve" smooth="yes"/>
      <point x="459" y="504"/>
      <point x="520" y="546"/>
      <point x="621" y="546" type="curve" smooth="yes"/>
      <point x="707" y="546" type="line" smooth="yes"/>
      <point x="808" y="546"/>
      <point x="869" y="504"/>
      <point x="869" y="403" type="curve" smooth="yes"/>
      <point x="869" y="298"/>
      <point x="808" y="254"/>
      <point x="707" y="254" type="curve" smooth="yes"/>
    </contour>
  </outline>
</glyph>
<glyph name="P" format="2">
  <advance width="1167"/>
  <unicode hex="0050"/>
  <outline>
    <contour>
      <point x="57" y="0" type="line"/>
      <point x="467" y="0" type="line"/>
      <point x="467" y="800" type="line"/>
      <point x="57" y="800" type="line"/>
    </contour>
    <contour>
      <point x="307" y="516" type="line"/>
      <point x="690" y="516" type="line" smooth="yes"/>
      <point x="749" y="516"/>
      <point x="776" y="504"/>
      <point x="776" y="458" type="curve" smooth="yes"/>
      <point x="776" y="405"/>
      <point x="749" y="397"/>
      <point x="690" y="397" type="curve" smooth="yes"/>
      <point x="307" y="397" type="line"/>
      <point x="307" y="112" type="line"/>
      <point x="662" y="112" type="line" smooth="yes"/>
      <point x="1024" y="112"/>
      <point x="1147" y="225"/>
      <point x="1147" y="458" type="curve" smooth="yes"/>
      <point x="1147" y="688"/>
      <point x="1024" y="800"/>
      <point x="663" y="800" type="curve" smooth="yes"/>
      <point x="307" y="800" type="line"/>
    </contour>
  </outline>
</glyph>
<glyph name="Q" format="2">
  <advance width="1327"/>
  <unicode hex="0051"/>
  <outline>
    <contour>
      <point x="545" y="-130" type="line"/>
      <point x="954" y="-130" type="line"/>
      <point x="817" y="170" type="line"/>
      <point x="411" y="170" type="line"/>
    </contour>
    <component base="O"/>
  </outline>
</glyph>
<glyph name="R" format="2">
  <advance width="1168"/>
  <unicode hex="0052"/>
  <outline>
    <contour>
      <point x="714" y="0" type="line"/>
      <point x="1133" y="0" type="line"/>
      <point x="1084" y="96" type="line" smooth="yes"/>
      <point x="1045" y="164"/>
      <point x="992" y="219"/>
      <point x="897" y="219" type="curve"/>
      <point x="613" y="219" type="line"/>
    </contour>
    <contour>
      <point x="57" y="0" type="line"/>
      <point x="467" y="0" type="line"/>
      <point x="467" y="800" type="line"/>
      <point x="57" y="800" type="line"/>
    </contour>
    <contour>
      <point x="307" y="516" type="line"/>
      <point x="691" y="516" type="line" smooth="yes"/>
      <point x="750" y="516"/>
      <point x="777" y="504"/>
      <point x="777" y="458" type="curve" smooth="yes"/>
      <point x="777" y="405"/>
      <point x="750" y="397"/>
      <point x="691" y="397" type="curve" smooth="yes"/>
      <point x="307" y="397" type="line"/>
      <point x="307" y="173" type="line"/>
      <point x="664" y="173" type="line" smooth="yes"/>
      <point x="1024" y="173"/>
      <point x="1148" y="276"/>
      <point x="1148" y="488" type="curve" smooth="yes"/>
      <point x="1148" y="698"/>
      <point x="1023" y="800"/>
      <point x="664" y="800" type="curve" smooth="yes"/>
      <point x="307" y="800" type="line"/>
    </contour>
  </outline>
</glyph>
<glyph name="S" format="2">
  <advance width="1177"/>
  <unicode hex="0053"/>
  <outline>
    <contour>
      <point x="1148" y="253" type="curve" smooth="yes"/>
      <point x="1148" y="462"/>
      <point x="1024" y="523"/>
      <point x="703" y="531" type="curve" smooth="yes"/>
      <point x="513" y="536" type="line" smooth="yes"/>
      <point x="383" y="539"/>
      <point x="373" y="542"/>
      <point x="373" y="552" type="curve" smooth="yes"/>
      <point x="373" y="563"/>
      <point x="396" y="567"/>
      <point x="480" y="567" type="curve" smooth="yes"/>
      <point x="669" y="567" type="line" smooth="yes"/>
      <point x="812" y="567"/>
      <point x="952" y="558"/>
      <point x="1056" y="548" type="curve"/>
      <point x="1091" y="780" type="line"/>
      <point x="990" y="793"/>
      <point x="815" y="810"/>
      <point x="722" y="810" type="curve" smooth="yes"/>
      <point x="600" y="810" type="line" smooth="yes"/>
      <point x="188" y="810"/>
      <point x="30" y="727"/>
      <point x="30" y="529" type="curve" smooth="yes"/>
      <point x="30" y="343"/>
      <point x="176" y="278"/>
      <point x="477" y="269" type="curve" smooth="yes"/>
      <point x="655" y="264" type="line" smooth="yes"/>
      <point x="772" y="261"/>
      <point x="794" y="259"/>
      <point x="794" y="246" type="curve" smooth="yes"/>
      <point x="794" y="238"/>
      <point x="770" y="234"/>
      <point x="685" y="234" type="curve" smooth="yes"/>
      <point x="507" y="234" type="line" smooth="yes"/>
      <point x="342" y="234"/>
      <point x="188" y="242"/>
      <point x="70" y="255" type="curve"/>
      <point x="34" y="20" type="line"/>
      <point x="155" y="5"/>
      <point x="344" y="-10"/>
      <point x="456" y="-10" type="curve" smooth="yes"/>
      <point x="593" y="-10" type="line" smooth="yes"/>
      <point x="1023" y="-10"/>
      <point x="1148" y="94"/>
    </contour>
  </outline>
</glyph>
<glyph name="T" format="2">
  <advance width="1196"/>
  <unicode hex="0054"/>
  <outline>
    <contour>
      <point x="393" y="0" type="line"/>
      <point x="803" y="0" type="line"/>
      <point x="803" y="800" type="line"/>
      <point x="393" y="800" type="line"/>
    </contour>
    <contour>
      <point x="20" y="496" type="line"/>
      <point x="1176" y="496" type="line"/>
      <point x="1176" y="800" type="line"/>
      <point x="20" y="800" type="line"/>
    </contour>
  </outline>
</glyph>
<glyph name="U" format="2">
  <advance width="1270"/>
  <unicode hex="0055"/>
  <outline>
    <contour>
      <point x="634" y="-10" type="curve" smooth="yes"/>
      <point x="977" y="-10"/>
      <point x="1186" y="131"/>
      <point x="1186" y="424" type="curve" smooth="yes"/>
      <point x="1186" y="800" type="line"/>
      <point x="766" y="800" type="line"/>
      <point x="766" y="419" type="line" smooth="yes"/>
      <point x="766" y="322"/>
      <point x="716" y="281"/>
      <point x="635" y="281" type="curve" smooth="yes"/>
      <point x="555" y="281"/>
      <point x="505" y="322"/>
      <point x="505" y="419" type="curve" smooth="yes"/>
      <point x="505" y="800" type="line"/>
      <point x="84" y="800" type="line"/>
      <point x="84" y="424" type="line" smooth="yes"/>
      <point x="84" y="131"/>
      <point x="292" y="-10"/>
    </contour>
  </outline>
</glyph>
<glyph name="V" format="2">
  <advance width="1262"/>
  <unicode hex="0056"/>
  <outline>
    <contour>
      <point x="1243" y="800" type="line"/>
      <point x="921" y="800" type="line"/>
      <point x="616" y="0" type="line"/>
      <point x="890" y="0" type="line"/>
    </contour>
    <contour>
      <point x="476" y="800" type="line"/>
      <point x="19" y="800" type="line"/>
      <point x="364" y="0" type="line"/>
      <point x="801" y="0" type="line"/>
    </contour>
    <contour>
      <point x="855" y="260" type="line"/>
      <point x="450" y="260" type="line"/>
      <point x="450" y="0" type="line"/>
      <point x="855" y="0" type="line"/>
    </contour>
  </outline>
</glyph>
<glyph name="W" format="2">
  <advance width="1321"/>
  <unicode hex="0057"/>
  <outline>
    <contour>
      <point x="1302" y="800" type="line"/>
      <point x="936" y="800" type="line"/>
      <point x="864" y="270" type="line"/>
      <point x="890" y="270" type="line"/>
      <point x="817" y="800" type="line"/>
      <point x="549" y="800" type="line"/>
      <point x="483" y="270" type="line"/>
      <point x="509" y="270" type="line"/>
      <point x="438" y="800" type="line"/>
      <point x="19" y="800" type="line"/>
      <point x="170" y="0" type="line"/>
      <point x="596" y="0" type="line"/>
      <point x="664" y="463" type="line"/>
      <point x="602" y="463" type="line"/>
      <point x="686" y="0" type="line"/>
      <point x="1156" y="0" type="line"/>
    </contour>
  </outline>
</glyph>
<glyph name="X" format="2">
  <advance width="1227"/>
  <unicode hex="0058"/>
  <outline>
    <contour>
      <point x="729" y="0" type="line"/>
      <point x="1208" y="0" type="line"/>
      <point x="778" y="478" type="line"/>
      <point x="498" y="800" type="line"/>
      <point x="19" y="800" type="line"/>
      <point x="429" y="372" type="line"/>
    </contour>
    <contour>
      <point x="19" y="0" type="line"/>
      <point x="447" y="0" type="line"/>
      <point x="638" y="320" type="line"/>
      <point x="775" y="324" type="line"/>
      <point x="1208" y="800" type="line"/>
      <point x="780" y="800" type="line"/>
      <point x="570" y="486" type="line"/>
      <point x="426" y="481" type="line"/>
    </contour>
  </outline>
</glyph>
<glyph name="Y" format="2">
  <advance width="1163"/>
  <unicode hex="0059"/>
  <outline>
    <contour>
      <point x="1144" y="800" type="line"/>
      <point x="806" y="800" type="line"/>
      <point x="514" y="209" type="line"/>
      <point x="786" y="209" type="line"/>
    </contour>
    <contour>
      <point x="441" y="800" type="line"/>
      <point x="19" y="800" type="line"/>
      <point x="376" y="209" type="line"/>
      <point x="756" y="209" type="line"/>
    </contour>
    <contour>
      <point x="786" y="369" type="line"/>
      <point x="376" y="369" type="line"/>
      <point x="376" y="0" type="line"/>
      <point x="786" y="0" type="line"/>
    </contour>
  </outline>
</glyph>
<glyph name="Z" format="2">
  <advance width="1216"/>
  <unicode hex="005A"/>
  <outline>
    <contour>
      <point x="57" y="277" type="line"/>
      <point x="560" y="185" type="line"/>
      <point x="1159" y="523" type="line"/>
      <point x="656" y="615" type="line"/>
    </contour>
    <contour>
      <point x="57" y="523" type="line"/>
      <point x="1159" y="523" type="line"/>
      <point x="1159" y="800" type="line"/>
      <point x="57" y="800" type="line"/>
    </contour>
    <contour>
      <point x="57" y="0" type="line"/>
      <point x="1159" y="0" type="line"/>
      <point x="1159" y="277" type="line"/>
      <point x="57" y="277" type="line"/>
    </contour>
  </outline>
</glyph>
<glyph name="I.narrow" format="2">
  <advance width="524"/>
  <outline>
    <contour>
      <point x="57" y="0" type="line"/>
      <point x="467" y="0" type="line"/>
      <point x="467" y="800" type="line"/>
      <point x="57" y="800" type="line"/>
    </contour>
  </outline>
</glyph>
